PathFileType	4	(X/Y/Z)	C:/Users/opensim2020/Desktop/walking_exp_matlab/subject03_walking17_run.trc																																																																																																																																																				
DataRate	CameraRate	NumFrames	NumMarkers	Units	OrigDataRate	OrigDataStartFrame	OrigNumFrames																																																																																																																																																
100	100	5	50	mm	100	286	132																																																																																																																																																
Frame#	Time	RTOE			LTHI			RWRB			LTIB			RELB			RUPA			RKNE			RTHI			RASI			RFRM			RWRA			RSHO			STRN			LFRM			CLAV			LWRB			LASI			RFHD			LFIN			LSHO			RTIB			LWRA			RBHD			LHEE			RANK			RHEE			C7			RFIN			LBHD			LUPA			LTOE			RBAK			LELB			LFHD			RPSI			LPSI			T10			LKNE			LANK			*39			*40			*41			*42			*43			*44			*45			*46			*47			*48			*49		
		X1	Y1	Z1	X2	Y2	Z2	X3	Y3	Z3	X4	Y4	Z4	X5	Y5	Z5	X6	Y6	Z6	X7	Y7	Z7	X8	Y8	Z8	X9	Y9	Z9	X10	Y10	Z10	X11	Y11	Z11	X12	Y12	Z12	X13	Y13	Z13	X14	Y14	Z14	X15	Y15	Z15	X16	Y16	Z16	X17	Y17	Z17	X18	Y18	Z18	X19	Y19	Z19	X20	Y20	Z20	X21	Y21	Z21	X22	Y22	Z22	X23	Y23	Z23	X24	Y24	Z24	X25	Y25	Z25	X26	Y26	Z26	X27	Y27	Z27	X28	Y28	Z28	X29	Y29	Z29	X30	Y30	Z30	X31	Y31	Z31	X32	Y32	Z32	X33	Y33	Z33	X34	Y34	Z34	X35	Y35	Z35	X36	Y36	Z36	X37	Y37	Z37	X38	Y38	Z38	X39	Y39	Z39	X40	Y40	Z40	X41	Y41	Z41	X42	Y42	Z42	X43	Y43	Z43	X44	Y44	Z44	X45	Y45	Z45	X46	Y46	Z46	X47	Y47	Z47	X48	Y48	Z48	X49	Y49	Z49	X50	Y50	Z50
																																																																																																																																																							
83	0.82	360.04953	186.19702	341.15482	952.81085	635.4184	127.38748	1084.78748	1061.17419	377.58948	1040.47937	288.63138	196.8634	936.43555	1107.07104	535.71381	917.01569	1198.76709	521.37372	779.7326	464.93457	406.1351	820.65997	644.28998	438.66089	943.97876	933.33154	396.2493	1019.17999	1083.19922	447.87219	1064.72156	1107.17383	360.46692	924.74908	1390.82886	403.35876	999.00275	1175.61731	243.96233	771.69495	1136.36938	-4.19258	957.69324	1344.4353	246.59764	844.99963	1052.00977	7.04287	940.72809	928.23596	166.89195	920.12372	1633.78589	323.83835	903.33618	988.58826	38.45468	888.6153	1392.10022	110.55753	593.16376	401.17053	402.98224	861.1604	1073.23108	57.2177	819.18018	1553.55872	312.63599	1044.95984	65.10284	297.21921	390.76724	330.0968	362.49103	362.42694	367.06146	306.91367	831.28998	1413.41052	259.86084	1137.22339	1084.03503	328.091	830.10529	1552.23975	182.73709	761.26367	1290.58594	11.55736	1231.33618	37.25576	287.07098	802.37781	1252.25916	371.33572	692.21753	1209.7926	-23.11104	936.62677	1633.59985	191.83852	790.70172	985.61877	357.17108	785.67529	966.09808	207.57809	791.09308	1110.57971	280.05573	1035.16382	488.28183	180.84134	1078.11047	85.08607	253.94382	NaN	NaN	NaN	NaN	NaN	NaN	833.9129	1663.68286	233.43211	NaN	NaN	NaN	NaN	NaN	NaN	NaN	NaN	NaN	NaN	NaN	NaN	NaN	NaN	NaN	NaN	NaN	NaN	NaN	NaN	NaN	NaN	NaN	NaN
84	0.83	397.93796	199.40704	347.09329	987.11328	633.21539	128.51259	1112.01062	1042.89697	382.1637	1062.53613	280.19284	199.15417	963.10315	1100.21533	536.48425	945.93182	1192.68201	522.4881	828.6037	453.84119	409.47931	862.0448	634.54169	441.20395	976.66339	927.66284	397.80557	1046.31055	1069.79822	450.9487	1093.63147	1088.84814	362.99945	958.81061	1383.41016	403.35367	1031.91248	1167.97314	245.59538	813.90619	1124.5929	-5.21955	990.9621	1336.85693	247.32515	888.68085	1042.56177	8.34456	973.33936	923.81366	167.03775	952.82532	1626.81519	324.15231	948.01477	981.39764	41.17352	924.14246	1383.19568	109.41493	640.87512	399.1102	405.92258	902.81232	1064.17908	59.05799	852.19604	1546.17651	312.76474	1049.16431	52.15919	301.28821	434.42383	341.91342	365.61505	407.11978	379.48019	309.42401	864.83893	1406.76465	259.13016	1165.46082	1061.49548	331.60034	863.46692	1544.97449	182.89194	800.45056	1277.92542	8.08189	1241.20837	33.56958	293.94296	834.4361	1247.36401	371.33051	733.95447	1196.19275	-26.63926	969.51233	1626.70068	192.27014	822.55286	976.64648	359.00037	817.35266	958.58398	209.80025	823.81348	1104.82874	281.41769	1067.57043	482.97171	180.49577	1083.92346	76.9878	260.44971	NaN	NaN	NaN	NaN	NaN	NaN	866.4082	1656.62317	233.87169	NaN	NaN	NaN	NaN	NaN	NaN	NaN	NaN	NaN	NaN	NaN	NaN	NaN	NaN	NaN	NaN	NaN	NaN	NaN	NaN	NaN	NaN	NaN	NaN
85	0.84	440.88742	210.94348	354.18057	1021.78186	630.26764	130.14726	1138.48792	1023.0766	387.73273	1081.34338	272.65326	202.69286	989.03864	1092.76123	536.995	974.0835	1185.53833	523.46857	878.30884	442.50232	413.6236	903.36285	624.03406	443.92764	1009.07758	920.70715	399.5011	1072.74194	1055.31641	454.51447	1121.80164	1068.77014	366.24802	991.73358	1375.32385	403.28122	1064.74426	1159.40564	247.5098	857.44824	1111.38184	-5.97165	1024.15674	1328.43921	248.11084	934.07373	1032.12732	10.25838	1005.59766	918.85681	167.43358	985.42365	1619.28162	324.68347	994.00562	973.05121	44.45221	960.0415	1373.3125	107.89146	690.1012	396.33905	409.75381	945.13995	1053.68591	61.95975	884.99445	1537.94604	312.79697	1046.70215	45.61702	306.73868	481.01456	352.2905	368.74152	454.15314	389.694	311.80896	897.9765	1399.27893	258.1431	1192.67334	1036.97449	336.12109	896.59534	1536.823	183.0004	840.56171	1263.3772	4.26506	1239.42651	32.43942	298.77579	865.87	1241.65784	371.43137	776.74957	1180.59753	-30.11209	1002.11884	1619.12036	192.86194	854.14429	966.91333	361.36111	848.30103	951.26886	212.22684	856.55164	1097.90955	282.39948	1099.94165	475.10507	179.65218	1082.14954	71.34435	268.10117	NaN	NaN	NaN	NaN	NaN	NaN	899.33441	1648.29956	233.76015	NaN	NaN	NaN	NaN	NaN	NaN	NaN	NaN	NaN	NaN	NaN	NaN	NaN	NaN	NaN	NaN	NaN	NaN	NaN	NaN	NaN	NaN	NaN	NaN
86	0.85	488.10336	220.13898	361.59198	1057.24829	625.81512	130.95027	1164.49219	1002.35223	394.77252	1099.28027	267.21304	204.38194	1014.16437	1084.41504	537.34961	1001.66626	1177.38232	523.88934	928.67566	431.57141	418.12082	944.89081	612.80072	446.58749	1041.09216	912.48846	401.32675	1098.41602	1039.92151	458.65485	1149.14355	1047.19678	370.43353	1023.88416	1366.95386	403.65338	1097.34949	1150.21143	249.72972	902.19946	1096.86719	-6.2387	1057.50623	1319.60107	248.97621	980.30505	1020.58472	13.13462	1037.64954	914.29987	167.01474	1017.44781	1611.63086	324.83826	1041.28271	964.47699	48.53445	996.28656	1362.96619	105.99409	740.85321	393.02975	414.16919	989.02618	1042.66943	65.14876	917.89954	1529.47485	312.8045	1047.91406	41.63137	311.9957	530.43341	360.54224	372.11203	503.43564	397.77765	314.60965	930.90698	1391.02173	256.94373	1218.73438	1010.83246	341.91263	930.00507	1528.50366	183.12596	881.58276	1246.95618	0.56055	1241.38525	32.42907	298.98361	896.82013	1234.78369	371.31839	820.71051	1163.37122	-33.537	1035.24878	1611.95886	192.99495	885.47137	956.62122	364.05939	878.42474	944.08246	214.49269	888.6911	1090.08533	283.38818	1132.47034	468.06192	180.52382	1086.71985	68.67451	273.18912	NaN	NaN	NaN	NaN	NaN	NaN	931.45197	1639.8186	234.0061	NaN	NaN	NaN	NaN	NaN	NaN	NaN	NaN	NaN	NaN	NaN	NaN	NaN	NaN	NaN	NaN	NaN	NaN	NaN	NaN	NaN	NaN	NaN	NaN
87	0.86	539.02216	226.67651	368.85678	1091.85852	619.66425	130.21455	1188.56604	980.26282	402.17709	1122.88147	264.4043	206.24094	1038.68921	1075.4845	537.83997	1028.36023	1168.05713	524.08575	979.711	421.54306	422.26968	987.28101	601.5575	449.05563	1072.00037	903.5957	401.74118	1123.31628	1023.76904	463.21109	1175.40076	1024.38159	375.37268	1054.9397	1358.93823	404.71439	1129.57983	1140.83301	252.21832	948.25812	1081.47229	-6.00503	1091.21423	1310.78406	249.87413	1027.5752	1008.32654	16.91998	1068.41235	908.64081	166.76331	1049.71521	1604.82446	325.31979	1089.51184	955.58142	53.69363	1032.48328	1352.87256	104.17599	793.29041	389.33356	418.77917	1033.77979	1030.96045	68.91048	951.12939	1521.3208	313.05872	1048.573	41.18324	315.06915	582.45905	366.17108	375.901	555.0152	403.45398	318.32367	963.13928	1382.64124	255.29156	1243.57104	983.85614	349.39288	963.44574	1520.47241	183.10628	923.48859	1229.32788	-3.3833	1242.44092	32.41217	300.69403	926.89209	1226.69922	370.51648	865.74182	1144.43677	-36.20547	1067.96411	1605.34729	193.31497	916.51178	946.14642	366.87592	908.0882	936.97894	216.34921	920.41864	1081.66272	284.39835	1163.86633	461.08249	181.46487	1090.2074	68.23522	276.24805	NaN	NaN	NaN	NaN	NaN	NaN	963.32098	1631.20398	234.54851	NaN	NaN	NaN	NaN	NaN	NaN	NaN	NaN	NaN	NaN	NaN	NaN	NaN	NaN	NaN	NaN	NaN	NaN	NaN	NaN	NaN	NaN	NaN	NaN
